<svg xmlns="http://www.w3.org/2000/svg" version="1.1" xmlns:xlink="http://www.w3.org/1999/xlink" xmlns:svgjs="http://svgjs.com/svgjs" width="600px" height="600px"><svg xmlns="http://www.w3.org/2000/svg" version="1.1" width="600px" height="600px" viewBox="0 0 200 200" style="overflow:hidden!important;"><g id="SvgjsG1102"><g id="SvgjsG1101"><path id="SvgjsPath1100" d="M0 0h200v200H0V0z" fill="#ecf0f1" stroke-width="none" opacity="1"></path></g><g id="SvgjsG1099" transform="matrix(1,0,0,1,0,0)"><g id="SvgjsG1098"><g id="SvgjsG1097" transform="matrix(1,0,0,1,0,0)"><g id="SvgjsG1096" transform="matrix(0.9599997000000001,0,0,0.9997997000000002,0,0)"></g></g><g id="SvgjsG1095"><path id="SvgjsPath1094" d="M166.5 181.1c-10.9-6.6-27.6-8.4-35-12.1-4.9-2.5-9.1-4.7-8.9-17.8s1.9-42.4 1.9-42.4H75.4s1.6 29.4 1.9 42.4-4.2 15.6-8.9 17.8c-7.4 3.5-24.1 5.4-35 12.1-10.8 6.6-10 18.9-10 18.9v19.7h153.3V200c-.1 0 .7-12.3-10.2-18.9z" fill="#cb8d60" stroke-width="none" opacity="1" stroke="none"></path></g><g id="SvgjsG1093"><path id="SvgjsPath1092" d="M93 163.2c2.6 1.6 11.4 1.6 14 .1 4.5-2.5 10.6-9.1 15.6-14 .3-13.8 1.9-40.5 1.9-40.5H75.4s1.4 26.5 1.8 40.3c5.1 4.9 11.2 11.6 15.8 14.1z" fill="#ac642f" stroke-width="none" opacity="0.65" stroke="none"></path></g><g id="SvgjsG1091"><path id="SvgjsPath1090" d="M78.7 156.8c.5 4.8 1.7 9.4 3.1 13.9.8 2.3 1.6 4.6 2.6 6.9.8 2 1.7 4.2 3.1 5.9.3.4 1 0 .9-.5-.5-2.2-1.6-4.3-2.4-6.4-.9-2.2-1.7-4.4-2.5-6.6-1.5-4.4-2.8-8.9-4.1-13.3-.2-.4-.8-.3-.7.1zm41.3-1c-1.3 8.2-3.9 16.1-5.4 24.2-.1.4.4.5.6.2 3.1-7.7 4.1-16.1 5.1-24.3-.1-.2-.3-.2-.3-.1zm-25.8 11.9c-.9 3.6 1.9 8.6 6.2 7.6.5-.1.4-.8 0-1-1.4-.5-2.9-.9-3.9-2.1-1.1-1.2-1.5-2.9-1.4-4.5 0-.4-.8-.5-.9 0z" fill="#ac642f" stroke-width="none" opacity="1" stroke="none"></path><path id="SvgjsPath1089" d="M177.3 219.7c-.1-6.6-.3-13.1-.3-19.7l-.3-.3c.1 0 .1 0 .2.1s.1.2.1.1v-1.4c0-.5-.1-.9-.1-1.4-.1-.9-.3-1.9-.5-2.8-.5-1.8-1.1-3.6-2-5.3-1.7-3.4-4.4-6.2-7.7-8.1-3.6-2.2-7.6-3.8-11.6-5.1-4-1.3-8.1-2.4-12.1-3.5-4-1.2-8.1-2.2-11.8-4.2-1.9-1-3.6-2.1-4.8-3.6-1.2-1.6-1.9-3.5-2.3-5.5-.8-4-.4-8.2-.3-12.4l.7-12.6 1.5-25.2.1-1.4h-1.4c-8.2 0-16.4 0-24.6.1l-24.6.3h-.9l.1.9c.8 11.9 1.6 23.8 2.1 35.7.1 3 .3 6 .2 8.9-.1 2.9-.4 5.9-1.6 8.6-.6 1.3-1.4 2.5-2.4 3.5s-2.3 1.8-3.6 2.4c-2.6 1.3-5.4 2.2-8.3 3-5.8 1.5-11.6 2.8-17.3 4.7-2.8.9-5.7 2-8.4 3.4-1.3.7-2.7 1.4-4 2.4-1.3.9-2.4 1.9-3.5 3.1-2.1 2.3-3.6 5.2-4.5 8.1-.5 1.5-.8 3-1 4.6-.1.8-.1 1.6-.1 2.4v2.3l-.2 17.9v1.3h1.4l38.3.2c12.8.1 25.5.1 38.3 0 12.8-.1 25.6-.1 38.3-.3 12.8-.2 25.6-.5 38.3-.7h.6v-.5zm-77.2-1.6H61.8l-37 .2-.1-16.6v-2.2c0-.7 0-1.4.1-2.1.1-1.4.4-2.8.8-4.2.8-2.7 2.1-5.3 3.9-7.5.9-1.1 2-2.1 3.1-2.9 1.1-.9 2.4-1.6 3.7-2.3 2.6-1.4 5.3-2.5 8.1-3.5 5.6-2 11.4-3.4 17.1-5.1 2.9-.8 5.8-1.7 8.5-3.1 1.3-.7 2.7-1.5 3.8-2.6 1.1-1.1 2-2.4 2.6-3.9 1.2-2.9 1.5-5.9 1.6-8.9 0-3-.1-6-.2-9l-1.3-34.8 23.5.4c7.7.1 15.4.1 23.1.1-.4 7.9-.8 15.9-1.1 23.8-.2 4.2-.2 8.4-.3 12.6 0 4.2-.2 8.5.8 12.8.5 2.1 1.3 4.2 2.8 6 1.4 1.7 3.4 2.9 5.3 3.8 3.9 1.9 8 2.8 12.1 3.8s8.2 2 12.2 3.3c4 1.3 7.9 2.8 11.5 5 3.2 1.9 5.8 4.7 7.5 8 .9 1.6 1.5 3.4 1.9 5.2.2.9.4 1.8.4 2.7.1.5.1.9.1 1.4V200l-.3 19c-12.6-.2-25.1-.5-37.7-.7-12.7-.1-25.5-.1-38.2-.2z" fill="#9d521b" stroke-width="none" opacity="1" stroke="none"></path></g><g id="SvgjsG1088"><path id="SvgjsPath1087" d="M179.3 220.1c0-17.5-1.6-26.7-1.6-26.7-3-14-21.9-18.2-30.7-20.1-15.2-3-20.1-7.2-20.1-7.2s-6.4 16-27.5 16-26.8-16.6-26.8-16.6-5.3 4.1-21.2 7.1c-8.7 1.9-26.3 6.9-29.3 20.9 0 0-1.6 9.2-1.6 26.7h158.8z" fill="#a44974" stroke-width="none" opacity="1" stroke="none"></path><path id="SvgjsPath1086" d="M179.6 209.2c-.1-3.6-.2-7.3-.5-10.9l-.3-2.7c-.1-.9-.2-1.8-.4-2.8-.4-1.9-1.1-3.6-2.1-5.3-1.9-3.3-4.9-5.9-8-7.9-3.2-2-6.6-3.5-10.1-4.7-3.5-1.2-7.1-2.1-10.6-2.9-3.5-.7-7-1.6-10.4-2.7-1.7-.6-3.3-1.2-4.9-1.9-.8-.4-1.6-.7-2.4-1.1-.4-.2-.8-.4-1.1-.6-.3-.2-.7-.5-1-.6-.1-.1-.2-.1-.3-.2-.7-.3-1.5 0-1.8.7-.5 1.1-1.2 2.3-1.9 3.4-.8 1.1-1.6 2.1-2.5 3.1-1.8 1.9-3.9 3.6-6.2 5-4.6 2.7-10.1 4-15.5 4.1-5.4.1-11-1-15.7-3.8-4.7-2.8-8.6-7.1-10.7-12.1 0 0 0-.1-.1-.1-.2-.2-.5-.3-.7-.1-1.4 1-3.1 1.8-4.7 2.4-1.7.7-3.4 1.3-5.1 1.8-3.5 1.1-7 1.9-10.5 2.6-7.1 1.5-14.3 3.5-20.6 7.6-3.1 2-6 4.6-7.9 7.9-1 1.6-1.7 3.4-2.2 5.3-.1.2-.1.5-.2.7l-.1.7-.2 1.4-.3 2.7c-.8 7.3-1.1 14.6-1.2 21.9 0 .7.6 1.4 1.3 1.4l40 .2c13.3 0 26.7-.1 39.9-.2l39.8-.3 36.9-.6 2.2-.4c.1-3.8.1-7.3.1-11zm-20.5 10.4-20-.3-39.7-.5c-13.2-.1-26.3-.2-39.4-.2l-38 .2c0-6.8.1-13.6.7-20.3l.3-2.7.1-1.3.1-.7c0-.2.1-.4.1-.6.4-1.6 1-3.3 1.8-4.8 1.7-3 4.2-5.6 7.1-7.6 2.9-2 6.2-3.6 9.5-4.9s6.8-2.3 10.4-3c3.6-.7 7.1-1.6 10.6-2.7 1.7-.6 3.5-1.2 5.2-1.9 1.5-.6 3-1.3 4.5-2.2 1.1 2.5 2.5 4.7 4.2 6.8 1.8 2.2 4 4.1 6.5 5.6 4.9 3.1 10.7 4.4 16.4 4.5 5.7.1 11.6-1 16.7-3.8 2.6-1.4 4.9-3.2 6.9-5.3 1.7-1.8 3.1-3.6 4.3-5.8.4.2.8.5 1.2.7.8.4 1.7.9 2.5 1.2 1.7.8 3.4 1.4 5.2 2 3.5 1.1 7.1 2 10.7 2.7 7 1.4 14 3.3 20.1 6.9 3 1.8 5.7 4.1 7.6 7 .9 1.4 1.6 3.1 2.1 4.7.2.8.3 1.7.4 2.6l.3 2.7c.4 3.6.8 7.2 1 10.8.2 3.6.4 7.3.6 10.8l-20-.6zM38.3 188.5c1.4 3.2 2.4 6.5 3.2 9.9.4 1.7.8 3.4 1.1 5.1.3 1.7.6 3.4.9 5.2.5 3.2 1 6.4 1.4 9.6h.2c.2-3.2.2-6.5 0-9.8-.3-3.5-.8-7.1-1.6-10.6-.4-1.7-.9-3.5-1.5-5.2-.6-1.7-1.3-3.4-2.2-4.9-.8-1.6-1.8-3.1-3-4.5-1-1.1-2-2.2-3.2-3.1-.1 0-.1.1-.2.1 1 1.1 1.8 2.3 2.6 3.5.8 1.5 1.6 3.1 2.3 4.7zm118.3 20.1c.3-1.7.6-3.5.9-5.2.3-1.7.6-3.4 1.1-5.1.8-3.4 1.8-6.7 3.2-9.9.7-1.6 1.5-3.1 2.4-4.6.7-1.1 1.5-2.3 2.4-3.3-.1-.1-.2-.1-.2-.2-1.1.8-2.1 1.8-3 2.9-1.1 1.4-2.1 2.9-3 4.5-.9 1.6-1.6 3.2-2.2 4.9-.6 1.7-1.1 3.4-1.5 5.2-.8 3.5-1.3 7-1.6 10.6-.2 3.5-.3 7.1 0 10.6.5-3.5 1-6.9 1.5-10.4zM116 183.8c-5.2 2.9-11.3 3.9-17.3 3.5-1.5-.1-3-.2-4.5-.4s-2.9-.5-4.4-.9c-1.4-.4-2.8-.9-4.2-1.5-1.3-.6-2.7-1.3-3.9-2.1-2.5-1.6-4.8-3.6-6.7-5.8-2-2.2-3.7-4.7-5-7.3 2 5.6 5.8 10.7 10.9 14.3 2.5 1.8 5.4 3.2 8.4 4.1 1.5.4 3.1.8 4.6 1 1.6.2 3.1.4 4.7.4 3.1.1 6.3 0 9.4-.7 3.1-.7 6.1-1.8 8.8-3.4 2.7-1.6 5.1-3.6 7.2-5.8 2.1-2.2 4-4.6 5.6-7.1-4 4.5-8.3 8.8-13.6 11.7z" fill="#852150" stroke-width="none" opacity="1" stroke="none"></path></g><g id="SvgjsG1085" transform="matrix(1,0,0,1,0,0)"><g id="SvgjsG1084" transform="matrix(1,0,0,1,3,0)"><g id="SvgjsG1083" transform="matrix(0.9499999,0,0,0.9499999,2.8678664344213516,5.0093842558090245)"><path id="SvgjsPath1082" d="M58.8 91.7s-2.6-4.9-5.3-5.7-4.4.7-3.9 6.6 5.2 23.2 10.6 22.2c5.4-1.1.9-19.6-1.4-23.1z" fill="#cb8d60" stroke-width="none" opacity="1"></path><path id="SvgjsPath1081" d="M59.8 93.6c.3.7.6 1.5.8 2.2.5 1.5 1 3.1 1.4 4.8.4 1.6.7 3.4.9 5.2.1.9.2 1.8.2 2.7 0 .9 0 1.8-.1 2.8-.1.9-.3 1.8-.7 2.5-.3.7-.8 1.2-1.2 1.5-.9.5-1.9.4-2.8-.1-.9-.5-1.8-1.5-2.6-2.7s-1.4-2.5-2-4c-.6-1.4-1.1-3-1.6-4.5s-1-3.1-1.4-4.7-.8-3.3-1.1-5-.5-3.6-.3-5.4c.1-.9.3-1.8.7-2.4s.8-1 1.3-1.2.9-.2 1.4-.1.9.3 1.4.6c.9.6 1.7 1.5 2.5 2.5s1.5 2.2 2.2 3.4c.4.5.7 1.2 1 1.9zm-3.2-5c-.8-.9-1.6-1.6-2.5-1.9-.8-.3-1.7-.4-2.5-.1-.4.2-.7.4-1 .9s-.5 1.1-.6 1.8c-.2 1.4-.2 3.2.1 4.8.2 1.7.5 3.3.9 5 .8 3.2 1.8 6.3 3.1 8.9.6 1.3 1.3 2.5 2 3.5s1.5 1.8 2.3 2.2c.4.2.8.3 1.2.3s.8-.1 1.2-.4c.3-.2.7-.6.9-1.1s.4-1.2.5-1.9c.2-1.4.1-3.1 0-4.8-.1-1.7-.4-3.3-.7-5s-.7-3.3-1.1-4.9c-.4-1.6-1-3.1-1.7-4.3-.6-1-1.3-2.1-2.1-3z" fill="#bc7746" stroke-width="none" opacity="1"></path><path id="SvgjsPath1080" d="M52.4 89.6c2.3 1.5 4.4 5.7 5.4 9.9v.1c0 .3-.2.4-.2.1-.4-1.2-.9-1.2-1.5 0-.1.8-.1 1.5.1 2.3.2.7.4 1.4.7 2 .5 1.2 1.2 2.1 1.8 3.1.2.3 0 .7-.2.6-1.4-1.1-3.4-4.7-3-7.8.2-1.5 1-2.3 1.6-1.7-.8-2.1-1.7-4-2.8-5.5-.6-.8-2-2.7-2.7-2.4-1.3.6-.6 4.8-.5 6.6 0 .3-.2.4-.3.1-.7-3.3-.8-9 1.6-7.4z" fill="#ac642f" stroke-width="none" opacity="1"></path><path id="SvgjsPath1079" d="M58 108.6c-2.4-.9-4.2-4.8-5.2-9-.6-2.6-1.8-8.6.5-8.5.2 0 .3.5.1.6-2.2 1.1.2 9.2.9 11.1 1 2.6 2.2 4.4 3.8 5.4.1.1 0 .5-.1.4z" fill="#ac642f" stroke-width="none" opacity="1"></path></g></g><g id="SvgjsG1078" transform="matrix(1,0,0,1,-3,0)"><g id="SvgjsG1077" transform="matrix(0.9499999,0,0,0.9499999,7.137739342588816,5.010595996818921)"><path id="SvgjsPath1076" d="M141.2 91.7s2.6-4.9 5.3-5.7 4.4.7 3.9 6.6-5.2 23.2-10.6 22.2c-5.4-1.1-.9-19.6 1.4-23.1z" fill="#cb8d60" stroke-width="none" opacity="1"></path><path id="SvgjsPath1075" d="M141.1 91.7c.7-1.2 1.4-2.4 2.2-3.4s1.6-1.9 2.5-2.5c.5-.3.9-.5 1.4-.6s.9-.1 1.4.1.9.5 1.3 1.2c.4.6.6 1.5.7 2.4.2 1.8 0 3.7-.3 5.4-.3 1.7-.7 3.4-1.1 5-.4 1.6-.9 3.2-1.4 4.7s-1 3.1-1.6 4.5-1.3 2.8-2 4c-.8 1.2-1.6 2.2-2.6 2.7-.9.5-1.9.7-2.8.1-.5-.3-.9-.8-1.2-1.5s-.5-1.6-.7-2.5c-.1-.9-.1-1.8-.1-2.8 0-.9.1-1.8.2-2.7.2-1.8.5-3.5.9-5.2s.9-3.2 1.4-4.8c.3-.8.5-1.5.8-2.2.4-.7.7-1.4 1-1.9zm.1.1c-.7 1.2-1.2 2.7-1.7 4.3-.4 1.6-.8 3.2-1.1 4.9-.3 1.7-.5 3.3-.7 5-.1 1.6-.2 3.3 0 4.8.1.7.3 1.4.5 1.9s.6.9.9 1.1c.3.3.8.3 1.2.4.4 0 .8-.1 1.2-.3.8-.4 1.6-1.2 2.3-2.2s1.4-2.2 2-3.5c1.3-2.6 2.3-5.7 3.1-8.9.4-1.6.7-3.3.9-5 .2-1.6.3-3.4.1-4.8-.1-.7-.3-1.3-.6-1.8-.3-.4-.6-.7-1-.9-.8-.3-1.7-.2-2.5.1-.8.4-1.7 1-2.5 1.9-.7.7-1.4 1.8-2.1 3z" fill="#bc7746" stroke-width="none" opacity="1"></path><path id="SvgjsPath1074" d="M147.6 89.6c-2.3 1.5-4.4 5.7-5.4 9.9v.1c0 .3.2.4.2.1.4-1.2.9-1.2 1.5 0 .1.8.1 1.5-.1 2.3-.2.7-.4 1.4-.7 2-.5 1.2-1.2 2.1-1.8 3.1-.2.3 0 .7.2.6 1.4-1.1 3.4-4.7 3-7.8-.2-1.5-1-2.3-1.6-1.7.8-2.1 1.7-4 2.8-5.5.6-.8 2-2.7 2.7-2.4 1.3.6.6 4.8.5 6.6 0 .3.2.4.3.1.7-3.3.8-9-1.6-7.4z" fill="#ac642f" stroke-width="none" opacity="1"></path><path id="SvgjsPath1073" d="M142 108.6c2.4-.9 4.2-4.8 5.2-9 .6-2.5 1.8-8.5-.5-8.5-.2 0-.3.5-.1.6 2.2 1.1-.2 9.2-.9 11.1-1 2.6-2.2 4.4-3.8 5.4-.1.1 0 .5.1.4z" fill="#ac642f" stroke-width="none" opacity="1"></path></g></g><g id="SvgjsG1072" transform="matrix(0.9599997000000001,0,0,0.9997997000000002,4.001557416240686,0.01879314612463645)"><g id="SvgjsG1071"><path id="SvgjsPath1070" d="M143.2 82.9v-.3c-1.3-30.5-20.7-47.3-43.2-47.3S58.1 52.1 56.9 82.6v.3c0 2.4-.5 15.6 3.1 26.5 3.2 9.8 5.7 17.5 13.5 24.1 5.5 4.6 13.8 14.7 19.6 17.9 2.6 1.4 11.4 1.4 14 0 5.8-3.3 14.1-13.4 19.6-17.9 7.8-6.5 10.4-14.3 13.5-24.1 3.4-10.9 2.9-24.2 3-26.5z" fill="#cb8d60" stroke-width="none" opacity="1" stroke="none"></path><path id="SvgjsPath1069" d="M73.5 133.4c5.5 4.6 13.8 14.7 19.6 17.9 2.6 1.4 11.4 1.4 14 0 5.8-3.3 14.1-13.4 19.6-17.9 7.8-6.5 10.4-14.3 13.5-24.1 3.4-10.9 2.9-24.2 3-26.5v-.3C141.9 52 122.5 35.2 100 35.2S58.1 52.1 56.9 82.6v.3c0 2.4-.5 15.6 3.1 26.5 3.2 9.8 5.7 17.5 13.5 24zM58 89.6c-.2-3.3-.3-6.7 0-10 .4-6.6 1.9-13.2 4.7-19.2 2.8-5.9 6.9-11.2 12.1-15.1C80 41.5 86 39.1 92.2 38c6.2-1 12.6-.7 18.6.9 6.1 1.5 11.7 4.6 16.6 8.7l.9.8c.3.3.6.6.9.8l1.7 1.7c.6.5 1 1.2 1.6 1.8l1.5 1.9c.9 1.4 1.8 2.8 2.6 4.2l1.1 2.2c.4.7.8 1.4 1 2.2 2.6 6.1 3.9 12.7 4.2 19.5-.1 3.4-.1 6.7-.4 10.1-.3 3.4-.7 6.6-1.5 9.9-.4 1.6-.8 3.3-1.3 4.8s-1.1 3.2-1.7 4.7c-1.2 3.2-2.5 6.2-4 9-1.6 2.8-3.4 5.4-5.6 7.5-.5.6-1.1 1-1.7 1.6l-1.9 1.5c-1.4 1.1-2.6 2.2-3.8 3.5-2.5 2.3-4.8 4.7-7.1 6.9s-4.8 4.5-7.2 6.1c-.3.2-1.8 1.3-8 1.1-.8 0-1.5-.1-2.2-.2-.7-.1-3-1.2-3.3-1.4-.6-.4-1.2-.9-1.8-1.3-2.4-1.9-4.8-4.3-7.1-6.6-2.4-2.3-4.7-4.7-7.3-7-.6-.6-1.3-1.1-2-1.7-.6-.5-1.2-1-1.7-1.5-1.1-1-2.2-2.2-3.1-3.5-1.9-2.4-3.4-5.3-4.7-8.2-1.3-3-2.4-6.1-3.6-9.3-1.1-3.1-1.9-6.2-2.5-9.5-.8-3-1.2-6.2-1.4-9.6z" fill="#9d521b" stroke-width="none" opacity="1" stroke="none"></path></g></g><g id="SvgjsG1068" transform="matrix(1,0,0,1,0,0)"><g id="SvgjsG1067"><path id="SvgjsPath1066" d="M88.66 128s7.08-5.38 8.29-5.46c.63-.04 3.28 1.37 3.28 1.37s2.49-1.23 3.23-1.22c1.42.01 7.89 6.14 9.05 7 0 0-3.46.51-4.53-.17-1.07-.68-4.87-1.07-5.93-1.54-1.07-.47-5.42-.17-7.68.21s-4.91.31-5.71-.19z" fill="#904539" stroke-width="none" opacity="1" transform="translate(0 2)" stroke="none"></path><path id="SvgjsPath1065" d="M86.86 128.38c4.18 1.86 8.94-.24 13.29-.15 2.61.06 4.99 1.13 7.49 1.74 1.78.43 3.98.89 5.61-.15.19-.12.92-.59.71-.61-1.49.43-3.21.16-4.42-.07-1.07-.21-2.1-.56-3.13-.89-1.94-.61-3.89-1.26-5.94-1.33-4.62-.15-9.75 1.75-14.43.67-.25-.06.55.68.82.79z" fill="#813326" stroke-width="none" opacity="1" transform="translate(0 2)" stroke="none"></path><path id="SvgjsPath1064" d="M91.68 132.33c.95 1.46 1.77 2.58 3.56 3.34 1.62.7 3.69.21 5.41.23 1.57.01 3.27.46 4.78-.06 1.68-.58 2.16-1.75 3.22-2.92.42-.65 1.05-1.83.69-1.52-1.08.96-3.05 2.72-4.55 3.13-1.28.35-2.6.03-3.92 0-1.32-.04-2.65.23-3.96.11-2.53-.23-4.55-2.78-6.29-4.13-.16-.14.41.85.53 1.03l.53.79z" fill="#ac642f" stroke-width="none" opacity="1" transform="translate(0 2)" stroke="none"></path></g></g><g id="SvgjsG1063" transform="matrix(1,0,0,1,1,-2)"><g id="SvgjsG1062" transform="matrix(0.8999997000000001,0,0,0.8999997000000001,8.00268666667938,9.450028349999997)"><g id="SvgjsG1061"><path id="SvgjsPath1060" d="M90.4 96.5S89 94 86.9 92.3c-2.1-1.7-5.6-2.5-8.1-2.3-2.5.2-7.1 1.8-9.6 5.5 0 0 2.3 1.2 5.6 1.8 3.3.6 8.9 1.1 12 .4 3-.6 3.6-1.2 3.6-1.2z" fill="#ffffff" stroke-width="none" opacity="1"></path></g><g id="SvgjsG1059" transform="matrix(1,0,0,1,0,0)"><g id="SvgjsG1058" transform="matrix(1,0,0,1,0,0)"><g id="SvgjsG1057" transform="matrix(0.8499995000000001,0,0,0.8499995000000001,12.015039821117384,14.040046571117387)"><path id="SvgjsPath1056" d="M80.1 88.4c2.8 0 5.2 2.3 5.2 5.2s-2.3 5.2-5.2 5.2-5.2-2.3-5.2-5.2 2.3-5.2 5.2-5.2z" fill="#3e4442" stroke-width="none" opacity="1" stroke="none"></path><path id="SvgjsPath1055" d="M80.1 90.8c1.5 0 2.8 1.2 2.8 2.8s-1.2 2.8-2.8 2.8-2.8-1.2-2.8-2.8 1.2-2.8 2.8-2.8z" fill="#000000" stroke-width="none" opacity="1"></path><path id="SvgjsPath1054" d="m79.4 91.3-.6-.6c-.2-.2-.4-.3-.7-.3-.2 0-.5.1-.7.3-.2.2-.3.4-.3.7s.1.5.3.7l.6.6c.2.2.4.3.7.3.2 0 .5-.1.7-.3.3-.5.4-1.1 0-1.4zm2.5 4.7c.9 0 .9-1.4 0-1.4s-.8 1.4 0 1.4z" fill="#ffffff" stroke-width="none" opacity="1"></path></g></g></g><g id="SvgjsG1053"><path id="SvgjsPath1052" d="M74.8 97.4c3.3.6 8.9 1.1 12 .4s3.6-1.3 3.6-1.3-1.4-2.5-3.5-4.2-5.6-2.5-8.1-2.3c-2.5.2-6.8 1.7-9.3 5.2v-.7c0-6.4 4.7-11.5 10.6-11.5s10.6 5.2 10.6 11.5S86 106 80.1 106c-5.5 0-10.1-4.6-10.6-10.5.6.5 2.6 1.4 5.3 1.9z" fill="#cb8d60" stroke-width="none" opacity="1" stroke="none"></path><path id="SvgjsPath1051" d="M90.9 98c-3.6 2.6-8.4 4.1-12.9 3.7-.2 0-.2-.2 0-.2 4.7-.5 8.5-1.4 12.7-3.7.3-.2.4.1.2.2z" fill="#bc7746" stroke-width="none" opacity="1" stroke="none"></path><path id="SvgjsPath1050" d="M69.2 95.7c5.5 4.1 15.4 3.7 21.5 1.5.3-.1.5-.5.3-.8-4.8-9.2-16.2-9.3-22-1-.1.1.1.3.2.3zm10.9 1.9c-3.7-.2-7-1.3-10.5-2.2 5.7-6.8 15.6-6.8 20.2.9-3.2 1.1-6.4 1.5-9.7 1.3z" fill="#000000" stroke-width="none" opacity="1" stroke="none"></path></g></g></g><g id="SvgjsG1049" transform="matrix(1,0,0,1,-1,-2)"><g id="SvgjsG1048" transform="matrix(0.8999997000000001,0,0,0.8999997000000001,11.99737333332061,9.450028349999997)"><g id="SvgjsG1047"><path id="SvgjsPath1046" d="M109.6 96.5s1.4-2.5 3.5-4.2c2.1-1.7 5.6-2.5 8.1-2.3 2.5.2 7.1 1.8 9.6 5.5 0 0-2.3 1.2-5.6 1.8-3.3.6-8.9 1.1-12 .4-3-.6-3.6-1.2-3.6-1.2z" fill="#ffffff" stroke-width="none" opacity="1"></path></g><g id="SvgjsG1045" transform="matrix(1,0,0,1,0,0)"><g id="SvgjsG1044" transform="matrix(1,0,0,1,0,0)"><g id="SvgjsG1043" transform="matrix(0.8499995000000001,0,0,0.8499995000000001,17.985060178882577,14.040046571117387)"><path id="SvgjsPath1042" d="M119.9 88.4c2.8 0 5.2 2.3 5.2 5.2s-2.3 5.2-5.2 5.2-5.2-2.3-5.2-5.2 2.4-5.2 5.2-5.2z" fill="#3e4442" stroke-width="none" opacity="1" stroke="none"></path><path id="SvgjsPath1041" d="M119.9 90.8c1.5 0 2.8 1.2 2.8 2.8s-1.2 2.8-2.8 2.8-2.8-1.2-2.8-2.8 1.3-2.8 2.8-2.8z" fill="#000000" stroke-width="none" opacity="1"></path><path id="SvgjsPath1040" d="m119.3 91.3-.6-.6c-.2-.2-.4-.3-.7-.3-.2 0-.5.1-.7.3-.2.2-.3.4-.3.7s.1.5.3.7l.6.6c.2.2.4.3.7.3.2 0 .5-.1.7-.3.3-.5.4-1.1 0-1.4zm2.5 4.7c.9 0 .9-1.4 0-1.4s-.9 1.4 0 1.4z" fill="#ffffff" stroke-width="none" opacity="1"></path></g></g></g><g id="SvgjsG1039"><path id="SvgjsPath1038" d="M125.2 97.4c-3.3.6-8.9 1.1-12 .4s-3.6-1.3-3.6-1.3 1.4-2.5 3.5-4.2 5.6-2.5 8.1-2.3c2.5.2 6.8 1.7 9.3 5.2v-.7c0-6.4-4.7-11.5-10.6-11.5s-10.6 5.2-10.6 11.5S114 106 119.9 106c5.5 0 10.1-4.6 10.6-10.5-.6.5-2.6 1.4-5.3 1.9z" fill="#cb8d60" stroke-width="none" opacity="1" stroke="none"></path><path id="SvgjsPath1037" d="M109.1 98c3.6 2.6 8.4 4.1 12.9 3.7.2 0 .2-.2 0-.2-4.7-.5-8.5-1.4-12.7-3.7-.3-.2-.4.1-.2.2z" fill="#bc7746" stroke-width="none" opacity="1" stroke="none"></path><path id="SvgjsPath1036" d="M131 95.4c-5.8-8.3-17.3-8.2-22 1-.2.3 0 .7.3.8 6.1 2.2 16 2.6 21.5-1.5.1 0 .3-.2.2-.3zm-20.8.9c4.6-7.7 14.5-7.7 20.2-.9-3.5.9-6.8 2-10.5 2.2-3.3.2-6.5-.2-9.7-1.3z" fill="#000000" stroke-width="none" opacity="1" stroke="none"></path></g></g></g><g id="SvgjsG1035"></g><g id="SvgjsG1034" transform="matrix(1,0,0,1,1,0)"><g id="SvgjsG1033" transform="matrix(1,1.7453292144864463e-9,-1.7453292144864463e-9,1,1.4176200124893512e-7,-1.3606350535155798e-7)"><g id="SvgjsG1032" transform="matrix(0.8999997000000001,0,0,0.8999997000000001,7.847791945404808,8.248376414366533)"><path id="SvgjsPath1031" d="M67.6 82.5c.1-.5.6-.7 1-1 .3-.2.7-.5 1-.7 0-.1 0-.2.1-.3 1.1-1.1 2.9-1.6 4.4-2.1.8-.8 2.1-.7 3.3-.4 1.4-.5 3.4.2 4.5.9.1.1.2.1.2.2.1 0 .3.1.4.1.8.2 1.4.4 1.9 1 1.2.5 2.4 1.1 3.2 2.1.6.2 1.2.5 1.7 1 .2.1.4.2.5.4h.2c.2 0 .4.2.6.3v-.2c-.1-.2.2-.3.3-.1.5.7.6 1.8.1 2.5 0 .1-.1.3-.1.4-.3.4-.6.5-.9.5-.6.2-1.2.2-1.7-.2-2-.1-4.2-1.3-5.9-2.3-.9-.5-2.5-1.3-3.5-2.3-.9-.1-1.8-.3-2.7-.5-1.1-.2-2.3-.2-3.3-.6-.2.1-.4.1-.6.2-.5.3-1.1.6-1.6.8-.6.3-1.2.6-1.9.6-.3 0-.5.2-.8.2-.3 0-.5-.3-.4-.5z" fill="#2a232b" stroke-width="none" opacity="1" stroke="none"></path><path id="SvgjsPath1030" d="M85.9 81.1c0-.1.1-.3.3-.1 1.3 1.3 1.8 3.6 1 5.3-.1.2-.4.1-.4-.1-.1-.1-.1-.2-.2-.3-.1-.1.1-.2.2-.2h.1c.1-.7.2-1.4 0-2.1-.2-.8-.6-1.6-1-2.5zm1.8.7c1.3 1.2 2.6 3.4 1.9 5.3-.1.2-.4.2-.4-.1.1-2-.9-3.2-1.8-4.9-.2-.3.1-.5.3-.3zm-8-3.4c3.3.5 5.1 4.2 5.8 7.1.1.2-.2.3-.3.1-.7-1.2-1.1-2.6-1.9-3.8-1-1.4-2.4-2.2-3.7-3.1-.2-.1-.1-.3.1-.3zm-2.6-.7c1.1 1 1.8 2.4 2.8 3.5 1.1 1.2 2.3 2.1 3.6 3 .2.1 0 .4-.2.3-2.9-1.3-4.9-3.8-6.7-6.4-.3-.3.2-.6.5-.4zm-2.4.3c.8.1 1.3.9 1.8 1.5.4.5.7 1 1.3 1.3.5.3.9.6 1.3 1 .2.2-.1.5-.3.3-.8-.6-1.7-.9-2.4-1.7-.3-.3-.5-.7-.8-1.1-.3-.4-.7-.6-1-1-.2 0-.1-.3.1-.3zm-5.3 3c1.5-1.4 4.2-1.4 5.8-.2.2.1.1.4-.2.4-1.1-.3-2.1-.6-3.3-.4-.8.2-1.4.6-2.2.6-.2-.1-.3-.3-.1-.4z" fill="#3a353a" stroke-width="none" opacity="1" stroke="none"></path><path id="SvgjsPath1029" d="M90.6 82.6c-.1-.1-.2 0-.2.1.2.7.7 1.5.7 2.3 0 1.6-1.5 1.9-2.7 1.6-.6-.1-1.2-.3-1.8-.6.3-1.7-.2-3.7-1.2-5.3 1.5 1 2.9 2.3 4.5 2.9.2.1.4-.2.3-.4-1.3-1.9-4.1-3.2-6.1-4.2-2.2-1.1-4.4-1.8-6.9-1.7-2.3 0-4.5.6-6.4 1.9-2.1 1.4-3.7 3.3-5.5 4.9-.4.4.2 1 .7.7 2.6-2.2 5.9-3.2 9.3-2.8 3.2.4 5.8 2.3 8.5 3.8 1.8 1 4.7 2.5 6.8 1.6 2-1 1.1-3.5 0-4.8zm-14.1-4.4c-.1.1-.1.1-.1.2.3 1 1 1.9 1.7 2.7.2.3.4.5.6.8-.3-.1-.6-.2-.8-.3-.1 0-.2-.1-.3-.1-1.2-.7-2.2-1.6-3.4-2.4-.1-.1-.3.1-.2.2.5.7 1.1 1.3 1.8 1.7-.2 0-.5-.1-.7-.1-.2-.1-.3-.2-.5-.3-.1-.1-.2-.1-.3-.2-.1 0-.2-.1-.3-.1-.1-.1-.2.1-.1.2l.2.2c.1.1.2.1.2.1-2.1-.1-4.2.4-6.2 1.3 2.4-2.1 5.2-3.6 8.4-3.9zm9.5 7.6c-.6-.2-1.1-.5-1.6-.8-1.4-.8-2.9-1.7-4.3-2.5-.5-.6-.9-1.2-1.4-1.8-.6-.8-1.1-1.8-1.8-2.5h.8c2.4.1 4.5.9 6.6 2 .5.9 1 1.8 1.3 2.8.3.9.3 1.9.4 2.8z" fill="#1b141c" stroke-width="none" opacity="1" stroke="none"></path></g></g></g><g id="SvgjsG1028" transform="matrix(1,0,0,1,-1,0)"><g id="SvgjsG1027" transform="matrix(1,1.7453292144864463e-9,-1.7453292144864463e-9,1,1.4176202967064455e-7,-2.127084570702209e-7)"><g id="SvgjsG1026" transform="matrix(0.8999997000000001,0,0,0.8999997000000001,12.155306088611596,8.238850323776617)"><path id="SvgjsPath1025" d="M132.4 82.5c-.1-.5-.6-.7-1-1-.3-.2-.7-.5-1-.7 0-.1 0-.2-.1-.3-1.1-1.1-2.9-1.6-4.4-2.1-.8-.8-2.1-.7-3.3-.4-1.4-.5-3.4.2-4.5.9-.1.1-.2.1-.2.2-.1 0-.3.1-.4.1-.8.2-1.4.4-1.9 1-1.2.5-2.4 1.1-3.2 2.1-.6.2-1.2.5-1.7 1-.2.1-.4.2-.5.4h-.2c-.2 0-.4.2-.6.3v-.2c.1-.2-.2-.3-.3-.1-.5.7-.6 1.8-.1 2.5 0 .1.1.3.1.4.3.4.6.5.9.5.6.2 1.2.2 1.7-.2 2-.1 4.2-1.3 5.9-2.3.9-.5 2.5-1.3 3.5-2.3.9-.1 1.8-.3 2.7-.5 1.1-.2 2.3-.2 3.3-.6.2.1.4.1.6.2.5.3 1.1.6 1.6.8.6.3 1.2.6 1.9.6.2.2.5.3.8.3.3-.1.5-.4.4-.6z" fill="#2a232b" stroke-width="none" opacity="1" stroke="none"></path><path id="SvgjsPath1024" d="M114.1 81.1c.1-.2-.1-.3-.2-.2-1.3 1.3-1.8 3.6-1 5.3.1.2.4.1.4-.1.1-.1.1-.2.2-.3.1-.1-.1-.2-.2-.2h-.1c-.1-.7-.2-1.4 0-2.1.1-.7.5-1.5.9-2.4zm-1.8.7c-1.3 1.2-2.6 3.4-1.9 5.3.1.2.4.2.4-.1-.1-2 .9-3.2 1.8-4.9.2-.3-.1-.5-.3-.3zm8-3.4c-3.3.5-5.1 4.2-5.8 7.1-.1.2.2.3.3.1.7-1.2 1.1-2.6 1.9-3.8 1-1.4 2.4-2.2 3.7-3.1.2-.1.1-.3-.1-.3zm2.6-.7c-1.1 1-1.8 2.4-2.8 3.5-1.1 1.2-2.3 2.1-3.6 3-.2.1 0 .4.2.3 2.9-1.3 4.9-3.8 6.7-6.4.3-.3-.2-.6-.5-.4zm2.4.3c-.8.1-1.3.9-1.8 1.5-.4.5-.7 1-1.3 1.3-.5.3-.9.6-1.3 1-.2.2.1.5.3.3.8-.6 1.7-.9 2.4-1.7.3-.3.5-.7.8-1.1.3-.4.7-.6 1-1 .2 0 .1-.3-.1-.3zm5.3 3c-1.5-1.4-4.2-1.4-5.8-.2-.2.1-.1.4.2.4 1.1-.3 2.1-.6 3.3-.4.8.2 1.4.6 2.2.6.2-.1.3-.3.1-.4z" fill="#3a353a" stroke-width="none" opacity="1" stroke="none"></path><path id="SvgjsPath1023" d="M109.5 87.3c2.1.9 4.9-.6 6.8-1.6 2.8-1.5 5.3-3.4 8.5-3.8 3.4-.4 6.7.6 9.3 2.8.4.4 1.1-.3.6-.7-1.9-1.6-3.4-3.6-5.5-4.9-1.9-1.2-4.1-1.8-6.4-1.9-2.4 0-4.7.7-6.9 1.7-2 1-4.8 2.3-6.1 4.2-.1.2.1.5.3.4 1.6-.6 3-1.9 4.5-2.9-1 1.6-1.6 3.6-1.2 5.3l-1.8.6c-1.3.3-2.7 0-2.7-1.6 0-.8.4-1.6.7-2.3 0-.1-.1-.2-.2-.1-1.1 1.4-2 3.9.1 4.8zm22.3-5.1c-1.9-.9-4-1.4-6.2-1.3.1 0 .2-.1.2-.1l.2-.2c.1-.1 0-.3-.1-.2-.1 0-.2.1-.3.1-.1 0-.2.1-.3.2-.2.1-.4.2-.5.3-.2 0-.5.1-.7.1.7-.5 1.4-1 1.8-1.7.1-.1-.1-.3-.2-.2-1.2.8-2.2 1.7-3.4 2.4-.1 0-.2.1-.3.1-.3.1-.6.2-.8.3.2-.2.4-.5.6-.8.6-.8 1.3-1.7 1.7-2.7 0-.1 0-.2-.1-.2 3.3.2 6.1 1.7 8.4 3.9zm-17.4.8c.3-1 .8-1.9 1.3-2.8 2.1-1.1 4.2-1.9 6.6-2h.8c-.7.7-1.2 1.7-1.8 2.5-.4.6-.9 1.2-1.4 1.8-1.5.8-2.9 1.7-4.3 2.5-.5.3-1.1.6-1.6.8.1-.9.1-1.9.4-2.8z" fill="#1b141c" stroke-width="none" opacity="1" stroke="none"></path></g></g></g><g id="SvgjsG1022" transform="matrix(0.9599997000000001,0,0,0.9997997000000002,0,0)"><g id="SvgjsG1021" transform="matrix(1,0,0,1,0,0)"><g id="SvgjsG1020"></g></g></g><g id="SvgjsG1019" transform="matrix(1,0,0,1,0,0)"><g id="SvgjsG1018"></g></g><g id="SvgjsG1017" transform="matrix(1,0,0,1,0,0)"><g id="SvgjsG1016" transform="matrix(0.8999997000000001,0,0,0.8999997000000001,10.02785830003738,10.337138097502887)"><path id="SvgjsPath1015" d="M106.64 111.4c.6.77 2.07 2.61 2.22 4.41.16 1.79-1.13 2.5-1.87 2.46-.74-.04-2.11-.78-2.73-.78-.62 0-2.18 1.95-3.04 2.18-.86.23-1.4-.2-2.18-.94-.78-.74-1.79-1.79-2.5-1.76-.7.04-1.95 1.76-2.65 1.91-.7.16-2.18-1.13-2.26-2.65s.31-3.59.7-4.13 2.15-2.03 2.15-2.03-.35-2.73.2-4.17 1.76-4.91 2.65-6.01 6.01-1.72 7.29.86c1.29 2.57 1.01 8.11.9 9.01-.01 0 .53.9 1.12 1.64z" fill="#cb8d60" stroke-width="none" opacity="1" transform="translate(0 1)" stroke="none"></path><path id="SvgjsPath1014" d="M94.39 84.73c1.21 1 2.14 2.05 2.6 3.6.51 1.75.01 3.2-.27 4.91-.15.92-.14 1.78.01 2.69.33 2.02.41 3.44-.5 5.37-.99 2.1-2.03 3.99-2.21 6.37-.18 2.41.46 4.64 1.64 6.72.09.16.33.02.25-.15-1.57-3.34-1.63-7.25-.07-10.61.92-2 2.14-3.8 1.88-6.1-.2-1.8-.56-3.26-.18-5.11.2-.97.38-1.92.29-2.91-.2-2.06-1.43-4.03-3.24-5.04-.15-.09-.34.13-.2.26z" fill="#9d521b" stroke-width="none" opacity="1" transform="translate(0 1)" stroke="none"></path><path id="SvgjsPath1013" d="M92.52 111.52c-1.4 1.76-2.28 6.9.72 7.77 1.99.58 2.39-2.9 4.43-1.36 1.09.82 1.37 2.53 3.09 2.35 1.22-.13 1.82-1.29 2.73-1.94 1.65-1.18 3.07 1.33 4.7.14 2.42-1.76.5-5.96-1.34-7.29-.35-.25-.75.29-.45.58 1.15 1.13 2.63 3.3 1.84 5.06-.98 2.14-2.51.04-3.79.12-2.13.15-2.9 3.88-5.25 1.63-.93-.89-1.92-2.81-3.54-1.9-.19.11-.33.28-.47.44-.18.26-.34.53-.48.81-1.6.24-2.48-.22-2.64-1.37-.53-1.62.1-3.4.72-4.88.05-.15-.18-.28-.27-.16z" fill="#9d521b" stroke-width="none" opacity="1" transform="translate(0 1)" stroke="none"></path><path id="SvgjsPath1012" d="M106.36 85.16c-3.97 2.97-1.15 7.57-2.01 11.5-.03.15.17.25.26.11.7-1.22.56-2.54.33-3.88-.53-3.05-.48-5.06 1.64-7.45.12-.14-.05-.41-.22-.28z" fill="#9d521b" stroke-width="none" opacity="1" transform="translate(0 1)" stroke="none"></path><path id="SvgjsPath1011" d="M104.34 100.28c.78 2.8 1 5.46 1.12 8.35.01.12.2.16.22.03.45-2.77-.08-5.86-1.14-8.44-.04-.12-.23-.08-.2.06z" fill="#9d521b" stroke-width="none" opacity="1" transform="translate(0 1)" stroke="none"></path><path id="SvgjsPath1010" d="M104.98 107.12c-.13-2.07-.55-4.75-2.16-6.2-.28-.25-.77-.09-.76.31.03 1.98.82 3.87.82 5.89 0 1.69-.96 3.95-.33 5.52.13.33.49.55.84.34 1.72-1.04 1.7-4.08 1.59-5.86z" fill="#d3986e" stroke-width="none" opacity="1" transform="translate(0 1)" stroke="none"></path></g></g><g id="SvgjsG1009" transform="matrix(0.9599997000000001,0,0,0.9997997000000002,3.9980730456256737,0.012841199502545919)"><path id="SvgjsPath1008" d="M146.8 58.2c-.3-1-.6-2.1-1-3.1-.1-5.4-4.8-11-10.5-14 .5-.1.8-.7.4-1.2-2.8-3.6-7.8-4.1-11.7-2.3l-.1-.1c-1.3-2.7-3.3-5-5.4-6.7-.4-.4-1.1.2-.7.6 1.1 1.1 2 2.3 2.7 3.6-.2-.1-.4-.2-.5-.3-4.7-6-14.1-8.7-21.2-7.8-.7.1-.8 1-.2 1.2.8.3 1.7.6 2.6.9h-2.6c-2.7-.4-5.5-.4-8.2-.1-15.2-.1-31.3 7.4-36.2 21.8-3.8 6-5.6 13-4.2 20.1-.3 5 .3 10.1 2 14.4.2 1.7.6 3.5 1.2 5.1 1.1 7.3 3.5 14.5 7.9 20.5.3.5 1 .1.8-.4-1.1-2.4-2.1-4.8-3-7.1.2-.1.4-.2.5-.5.3 1.1.5 2.2.9 3.2.1.2.5.2.5-.1 0-2.4 0-4.8-.1-7.2.1.7.2 1.4.3 2.2.1.4.7.3.7-.1-.2-4.2-.2-8.4 0-12.5.3-2.3.6-4.7 1-7 .2-.3.3-.7.5-1-1 4-1.6 8.2-1.1 12.1 0 .3.5.4.6.1 2-5.8 2.6-12 4.5-17.9.7-2.1 1.4-4.1 2.2-6.1.8-.9 1.7-1.9 2.6-2.8.5-.3.9-.6 1.4-.9-3.9 4.9-6.7 10.5-7.6 15.9-.1.3.4.5.6.2 1.6-2.6 3.1-5.2 4.6-7.7.1.1.3.1.5 0 .5-.4 1.1-.8 1.6-1.1.2.1.4.1.6 0 1.2-.6 2.4-1.3 3.7-1.9-.3.4.2 1 .7.9 3.8-.6 7.4-1.9 11-3.4-1.7 1.2-3.4 2.5-5 3.9-1.3.8-2.5 1.7-3.7 2.8-.5.5.1 1.2.7.9 6.2-3.3 13.1-6.1 19.8-9.3-4.4 2.5-8.9 4.6-13.4 6.9-.4.2-.1.9.3.7 3.8-1.4 7.9-3 11.8-4.8-1.4 1.2-2.9 2.5-4.1 3.8-.6.5-1.3.9-1.9 1.4-.7.6.1 1.7.8 1.4 1.2-.4 2.5-.8 3.8-1.3.1.1.3.1.5.1 5.9-1.1 11.7-5.1 16.3-8.8.8-.6 1.5-1.3 2.2-2-1.4 1.7-3.1 3.2-5.2 4.5-.6.4-.1 1.4.6 1 3.7-1.9 7.2-5 9.7-8.6 1 5.5 3.8 10.7 8.2 13.6 1.9 2.9 3.8 6 5.9 8.9 1.1 2.7 2 5.4 2.7 8.2.1.8.2 1.6.2 2.4.3 6.2-1.6 11.7-4.1 17.3-.3.7.5 1.4 1.1.8 1.3-1.3 2.4-2.8 3.2-4.4.2.1.4 0 .6-.2.2.2.6.2.8-.2.4-.7.8-1.5 1.2-2.2.1-.1.2-.2.2-.3v-.2c2.2-4.9 3.8-10.9 4.5-16.4.2-.8.4-1.5.5-2.2.2 0 .4-.2.4-.4.3-1.1.5-2.2.6-3.4.3-1.6.5-3.2.5-4.8 0 .1.1.2.1.4.1.5.9.4.9-.1.5-6.1-.4-13-3-18.9zM63.9 40.6c-.3.3-.7.5-1 .8 1.5-1.5 3.1-2.8 4.9-4-1.4 1-2.7 2.1-3.9 3.2zm26 24.1c-3.4 1.4-6.8 2.8-10.2 4.3 5.1-2.7 10.1-5.4 15-8.2l-4.8 3.9zm-3.5-5.5c-2.7 1.5-5.4 3.1-8 4.8 3.4-2.7 6.7-5.3 10.7-7.2C91 55.9 93 55 95 54.2c-2.8 1.7-5.7 3.4-8.6 5z" fill="#2a232b" stroke-width="none" opacity="1"></path><path id="SvgjsPath1007" d="M125 48.7c-3.7 12.9-15.8 17.5-26.7 22.8-.3.2-.1.7.2.6 11.4-3.9 24.2-10.5 26.8-23.3.1-.3-.2-.4-.3-.1zm-2.2-.7c-3.1 6.3-9.6 9.1-15.6 12.2-6.7 3.4-13.4 6.7-19.9 10.4-.4.2 0 .7.3.5 8.2-3.7 16.2-7.9 24.1-12.1 4.9-2.6 9.6-5.4 11.5-10.8.2-.3-.2-.5-.4-.2zm-2.6.5c-6.8 4.7-14.2 8.1-22.1 10.6-.3.1-.2.5.1.5 8.1-2 15.5-5.7 22.2-10.6.4-.2.1-.7-.2-.5zm-11.8.5c-14.4.8-28.5 6.7-39 16.6-.2.2.1.5.3.3C81 56.6 93.8 51 108.4 49.2c.3 0 .3-.3 0-.2zm-10.7 8.3c-9.4 2.8-18.5 8-25.7 14.7-.3.2.1.6.4.4 7.9-6.3 16-10.8 25.4-14.5.4-.1.3-.7-.1-.6zm-23.9-1c-7.3 9.2-11.9 21.1-12.2 33 0 .4.5.4.6 0 1.6-12 5.3-22.5 12.2-32.5.1-.4-.4-.8-.6-.5zm-8.2 7.2c-5.5 9.6-7.9 20.9-6.1 31.8.1.3.6.3.6-.1-.8-11.1.9-21.5 5.9-31.5.1-.3-.2-.5-.4-.2zm-5.3 40.4c-2.8-9.9-4.1-19.5-2.6-29.7 0-.3-.4-.4-.4-.1-1.7 10-1.4 20.5 2.3 30 .2.4.8.2.7-.2zm5.4-60.6C54.3 52.4 48.2 68.6 52 82.9c.1.3.5.2.5-.1-2.3-14.9 2.2-29 13.6-39 .3-.3-.1-.7-.4-.5zM62 53.6c-6.4 9.1-9.8 20.3-8.3 31.4 0 .3.5.3.5 0-.5-11.3 1.9-21.8 8.2-31.2.1-.3-.2-.5-.4-.2zm48-19.5c-11.6-4.5-26.1-5.4-37.1 1.2-.2.1 0 .4.2.3 12.2-5.6 24.2-4.5 36.8-1 .3.2.5-.4.1-.5zm8.7 4c-3.7-4.8-9.2-7.8-14.9-9.4-.3-.1-.5.4-.1.5 5.7 2 10.2 5.3 14.6 9.3.3.2.6-.1.4-.4zm3.7 2.3c-.6-1-1.5-1.8-2.3-2.7-.9-.9-1.8-1.8-2.8-2.6-.3-.2-.7.2-.4.4l2.7 2.7c.8.8 1.5 1.8 2.4 2.5.2.3.5 0 .4-.3zm-.9-4.3c-.3-.3-.8.1-.6.5.5.7 1 1.5 1.4 2.3.4.8.6 1.7 1 2.5.2.3.6.2.6-.2-.1-1.8-1.3-3.7-2.4-5.1zm13.4 40.7c-6.4-6.4-9.9-14-10-23.2 0-.2-.3-.2-.3 0-.7 9 2.9 17.9 10 23.5.2.2.5-.1.3-.3zm4 2.5c-.1-.3-.6 0-.4.3 1.5 3.3 2.4 6.6 2.8 10-2.9-9.8-9.2-18.4-11.4-28.5-.1-.4-.6-.2-.6.2.8 4.9 2.7 9.2 4.8 13.6 2.8 5.8 4.9 11.7 7.3 17.6.1 4.2-.5 8.5-1.8 12.9-.1.3.4.5.5.2 3.9-8.5 3-18.2-1.2-26.3zm5.3-10.6c-.1-.3-.5-.2-.5.1.8 4.6 1.2 9.1 1 13.7-.3-2.2-.9-4.4-1.7-6.6-.1-.3-.5-.2-.4.1 1.8 7.2 1.9 13.9.3 21.2-.1.4.5.5.6.2 1.1-3.5 1.6-7.1 1.6-10.7 1.1-5.9.9-12.1-.9-18zm-2.9-18.3c-.2-.4-.8 0-.6.3 4.2 7.9 5.9 16 6.5 24.8 0 .4.7.4.7 0 .4-8.7-2.3-17.4-6.6-25.1zm-3.1-4.3c-2.9-3.1-6.8-6-11.3-4.8-.3.1-.2.5.1.4 4.4-.9 7.6 2.2 10.8 4.7.3.3.7-.1.4-.3zm-3.5 16.5c-.2-.3-.6 0-.4.2 2.9 5 4.6 10.2 5.9 15.8.1.3.6.2.5-.1-.7-5.6-2.9-11-6-15.9zM95.2 37.9c-13 1.2-24.9 8.4-31.2 20-.1.2.1.3.2.1 6.7-11.2 17.9-18.7 31-19.8.2 0 .2-.3 0-.3z" fill="#1b141c" stroke-width="none" opacity="1"></path><path id="SvgjsPath1006" d="M117.8 46.4c-7 4.5-14.3 7.9-22.2 10.5-.2.1-.1.4.1.4 8-2.1 15.5-5.8 22.2-10.6.3-.1.1-.4-.1-.3zm3.5 1.1c-3.1 6.8-12.9 10-19.4 12.4-.2.1-.1.4.1.3 4.6-1.2 8.9-3.1 13-5.5 2.9-1.7 5.8-3.6 6.8-7 0-.2-.4-.4-.5-.2zm-36.8-1.4c-8.9 4.5-15.6 12.6-19 21.9-.1.3.3.4.4.1 3.9-9.3 10.4-16.2 18.8-21.5.4-.3.1-.7-.2-.5zm12.1-6.5c-7.5.1-14.7 2.7-20.7 7.2-.1.1 0 .3.2.2 4.3-2.7 8.8-4.6 13.5-5.8C82.4 44.3 76 49 70.5 54.5c-.1.1.1.3.2.2 5.8-5.6 12.4-9.8 19.6-13.5.1 0 .1-.2.1-.3 2-.5 4.1-.8 6.3-1.1.2.2.2-.2-.1-.2zm8.7 6.6c-7.7.9-15.5 2.2-22 6.6-.2.1 0 .4.2.3 6.8-3.9 14.3-5.2 21.9-6.6.1 0 .1-.3-.1-.3zm28.8 15.5c-2.5-4-4.7-8-6-12.5-.1-.3-.5-.2-.4.1 1.1 4.6 3 9.1 6.1 12.7.1.1.4-.1.3-.3zm2.2-.4c-1.7-1.6-2.7-4.1-3.8-6.1-1.2-2.1-2.4-4.3-3.6-6.4-.1-.2-.3 0-.3.2 1.2 2.7 2.5 5.3 3.9 7.9.9 1.7 1.7 3.8 3.6 4.7.1 0 .3-.2.2-.3zm2.6.3c-1.9-4.1-4.7-7.9-7.5-11.5-.2-.2-.6.1-.4.3 2.7 3.7 5.1 7.5 7.5 11.3.1.4.5.2.4-.1zm-10-16.6c-.2-.2-.4.1-.3.3 5.9 7.1 11.8 13.7 14.9 22.6.1.2.4.1.4-.1-2.3-9.1-8.6-16.5-15-22.8zM144 63.4c-2.1-6-5.9-11.7-10.6-16-.2-.2-.4.1-.2.2 4.3 5 7.5 10.1 10.3 16 .1.3.6.1.5-.2zM96.1 44.8c-6.8.6-13.3 3.7-18.1 8.5-.1.1.1.3.2.2 5.5-4.2 11.2-6.8 17.9-8.2.3-.1.3-.5 0-.5zm-2.7 2.3c-3.4.7-6.7 2.1-9.6 3.8-.2.1 0 .4.2.3 3.2-1.3 6.3-2.5 9.6-3.7.1-.1 0-.5-.2-.4zm18.9 1.4c-5.3 3.2-11.6 2.8-17.1 5.1-.3.1-.1.7.2.6 5.5-2.3 12.2-1.6 17.1-5.3.2-.2 0-.5-.2-.4zM96.3 37c-9.1-2.1-20 2-27.9 6.5-.2.1 0 .5.2.4C77 40 86.7 36 96.1 37.5c.4 0 .6-.4.2-.5zm-5.7-2c-6.1.2-12 1.6-17.2 4.9-.2.1 0 .4.2.3 5.5-2.6 10.9-4.4 17-4.7.3 0 .3-.5 0-.5zm-3.9-1.7c-2.7-.2-5.5-.1-8 1-.3.1-.2.5.1.5 2.6-.6 5.2-1 7.8-.8.4-.1.4-.7.1-.7z" fill="#3a353a" stroke-width="none" opacity="1"></path></g><g id="SvgjsG1005" transform="matrix(1,0,0,1,0,0)"><g id="SvgjsG1004"></g></g></g></g></g><rect id="SvgjsRect1003" width="200" height="15" x="0" y="185" fill="#ecf0f1" opacity="0.5" style="display: none;"></rect><text id="SvgjsText1002" font-family="Avenir Next, Roboto, Helvetica, Arial, sans-serif" font-size="10px" text-anchor="start" font-weight="400" size="10px" anchor="start" weight="400" fill="#333333" x="33.298973083496094" y="182.60824728012085" style="display: none;" svgjs:data="{&quot;leading&quot;:&quot;1.3&quot;}"><tspan id="SvgjsTspan1001" dy="13" x="33.298973083496094" svgjs:data="{&quot;leading&quot;:&quot;1.3&quot;}">Created on AvatarMaker.com</tspan></text></g><defs id="SvgjsDefs1000"></defs></svg><style>@media (prefers-color-scheme: light) { :root { filter: none; } }
</style></svg>